<svg id="Layer_1" data-name="Layer 1" xmlns="http://www.w3.org/2000/svg" viewBox="0 0 543.06 193.06"><defs><style>.cls-1{fill:#fff;}</style></defs><rect class="cls-1" x="307.15" y="35.37" width="2.58" height="129.89"/><path class="cls-1" d="M95.39,61.56c11.15-15,8.89-29.4-9-43.41-19.16,15-20,30.45-7.82,45.25,1.8,2.11,7.82,7.82,7.82,7.82s6.68-.13,16.84,3.91A60.48,60.48,0,0,0,92,61.32c-7.64-6.59-16.13-18.38-5.59-28.16,7.11,6.6,5.55,14.12,1.44,20.34,0,0,.47,1.5,5.55,6.22.74.69,1.32,1.33,2,1.84"/><path class="cls-1" d="M84.62,72.54a40.34,40.34,0,0,0-7.89,14.38A66.42,66.42,0,0,0,74,102.73c-4.27-1-10.55-6.27-10.55-6.27a62.25,62.25,0,0,1,4.42-18.32A39.7,39.7,0,0,1,77,64.86Z"/><path class="cls-1" d="M51.46,87.56c-15-11.14-29.4-8.89-43.41,9,15,19.15,30.45,20,45.25,7.81,2.11-1.8,7.82-7.81,7.82-7.81S61,89.86,65,79.69A60.48,60.48,0,0,0,51.22,90.94c-6.59,7.64-18.38,16.14-28.16,5.6C29.66,89.42,37.18,91,43.4,95.1c0,0,1.5-.47,6.22-5.56.68-.73,1.33-1.31,1.84-2"/><path class="cls-1" d="M62.44,98.33a40.34,40.34,0,0,0,14.38,7.89A66.67,66.67,0,0,0,92.63,109c-1,4.26-6.27,10.55-6.27,10.55A62.08,62.08,0,0,1,68,115.13,39.7,39.7,0,0,1,54.76,106Z"/><path class="cls-1" d="M77.46,131.49c-11.15,15-8.89,29.41,9,43.41,19.15-15,20-30.44,7.81-45.25-1.8-2.1-7.81-7.82-7.81-7.82s-6.68.13-16.85-3.9a60.54,60.54,0,0,0,11.25,13.8c7.64,6.6,16.14,18.39,5.6,28.16-7.12-6.6-5.56-14.11-1.44-20.33,0,0-.48-1.5-5.56-6.23-.73-.68-1.31-1.33-2-1.84"/><path class="cls-1" d="M88.23,120.52a40.45,40.45,0,0,0,7.89-14.38A66.47,66.47,0,0,0,98.9,90.32c4.27,1,10.55,6.27,10.55,6.27A62.14,62.14,0,0,1,105,114.91,39.8,39.8,0,0,1,95.9,128.2Z"/><path class="cls-1" d="M121.39,105.5c15,11.14,29.41,8.88,43.41-9-15-19.16-30.45-20-45.25-7.82-2.11,1.81-7.82,7.82-7.82,7.82s.13,6.68-3.9,16.84a60.22,60.22,0,0,0,13.8-11.25c6.6-7.64,18.39-16.13,28.16-5.59-6.6,7.11-14.12,5.55-20.33,1.44,0,0-1.51.47-6.23,5.55-.68.74-1.33,1.32-1.84,2"/><path class="cls-1" d="M110.41,94.72A40.34,40.34,0,0,0,96,86.83a66.35,66.35,0,0,0-15.81-2.78c1-4.27,6.27-10.55,6.27-10.55a62.14,62.14,0,0,1,18.32,4.42,39.7,39.7,0,0,1,13.28,9.13Z"/><path class="cls-1" d="M25.34,79.76a27.53,27.53,0,0,1,8.42-1.31,28.32,28.32,0,0,1,3.46.21,52.57,52.57,0,0,1,31.4-31.35A28.14,28.14,0,0,1,68.46,44a27.6,27.6,0,0,1,1.34-8.57A63.46,63.46,0,0,0,25.34,79.76"/><path class="cls-1" d="M69.66,157.62a27.62,27.62,0,0,1-1.31-8.42,28.36,28.36,0,0,1,.21-3.47,52.52,52.52,0,0,1-31.35-31.4,28.13,28.13,0,0,1-3.33.17,27.6,27.6,0,0,1-8.57-1.35,63.43,63.43,0,0,0,44.35,44.47"/><path class="cls-1" d="M147.52,113.3a27.94,27.94,0,0,1-8.43,1.3,26.46,26.46,0,0,1-3.46-.21,52.57,52.57,0,0,1-31.39,31.36,30.38,30.38,0,0,1,.16,3.32,28,28,0,0,1-1.34,8.58,63.46,63.46,0,0,0,44.46-44.35"/><path class="cls-1" d="M103.2,35.44a27.83,27.83,0,0,1,1.3,8.42,26.61,26.61,0,0,1-.21,3.47,52.57,52.57,0,0,1,31.36,31.39,29.65,29.65,0,0,1,11.9,1.18A63.47,63.47,0,0,0,103.2,35.44"/><path class="cls-1" d="M183,123V105h.91l26.43,28.25.37.32c.11-1.93.16-3.92.16-5.85V110.58l-.21-4.3,0-.43a17.81,17.81,0,0,0,2.31.16,6.21,6.21,0,0,0,1.34-.16c0,.43,0,.86-.11,1.29l-.27,5.26-.48,12.73-.16,12,.16,6.07h-.81c-1.07-1.29-2.15-2.58-3.27-3.82l-8.76-9.72-15-16-.11,5.05c-.05,2.69,0,5.32,0,7.95V131l.16,6.33.27,5.16a10.45,10.45,0,0,0-3.7,0c.21-2.36.37-4.73.43-7.09Z"/><path class="cls-1" d="M228.59,123.89l.16,11.66.21,5.8.11,1.18c-.81-.06-1.66-.27-2.47-.27-1,0-1.88.21-2.85.27.06-.38.06-.81.11-1.18l.22-4.25.21-12.56V111.43l-.27-5.69c.92.06,1.83.21,2.74.21s1.67-.1,2.47-.15c0,.48,0,1-.1,1.44l-.22,4.89-.27,9.35,6.93.16,15.36-.16V110.09l-.27-4.35c.91.06,1.83.21,2.74.21s1.66-.1,2.52-.15c-.1.48-.1,1-.16,1.44l-.48,17.51.16,12.09.27,5.69c-.81-.06-1.61-.27-2.42-.27-1,0-1.88.21-2.85.27.06-.38.06-.81.11-1.18l.27-5.53.16-11.93Z"/><path class="cls-1" d="M264.67,135.44c2.09,3.44,4.51,5.48,8.7,5.48a7.47,7.47,0,0,0,7.46-7.74c0-3.59-2.41-5.42-5.42-6.76-2.53-1.18-5.27-2-7.57-3.6a8.87,8.87,0,0,1-3.82-7.36c0-6.93,5.48-10.31,11.92-10.31a12,12,0,0,1,7.68,2.58,30.63,30.63,0,0,0-1.45,4.4h-.53A7,7,0,0,0,275,107.3a6.47,6.47,0,0,0-6.77,6.44,6.17,6.17,0,0,0,2.31,5,6.38,6.38,0,0,0,2.1,1.28,22,22,0,0,0,2,.92c.81.32,1.62.64,2.42,1s1.72.7,2.47,1.13a11.44,11.44,0,0,1,3.39,2.31,8.86,8.86,0,0,1,2.2,5.69c0,7.68-6,12.14-13.27,12.14-2.63,0-6.93-1-8.75-3a24,24,0,0,0,1-4.78Z"/><path class="cls-1" d="M189.12,165a6.78,6.78,0,0,0-1.2-.12,7.2,7.2,0,0,0-1.22.12c-1.34-5.17-2.94-10.27-4.51-15.39l-.17-.68c.64.05,1.27.12,1.91.12s1.29-.07,1.92-.12c.94,4,2,7.85,3.11,11.75,1.33-3.93,2.86-7.78,4.06-11.75a7,7,0,0,0,1.2.12,6.51,6.51,0,0,0,1.15-.12c1.06,4,2.59,7.8,3.74,11.75,1.24-3.88,2.49-7.78,3.47-11.75a7.64,7.64,0,0,0,1.06.12,5.3,5.3,0,0,0,1.06-.12v.19c-1.93,5.24-3.76,10.52-5.38,15.88a6.78,6.78,0,0,0-1.2-.12,7.2,7.2,0,0,0-1.22.12c-1-3.88-2.38-7.66-3.74-11.42-1.31,3.74-2.7,7.43-4,11.19Z"/><path class="cls-1" d="M217.34,158.73h4.3c-.66-1.83-1.37-3.66-2.09-5.47-.76,1.74-1.49,3.48-2.14,5.26Zm-4.42,6,1.74-4c1.74-3.94,3.4-7.94,4.89-12a5.28,5.28,0,0,0,.89.11,5.41,5.41,0,0,0,.89-.11l.17.4q2.92,7.71,6.15,15.34l.12.26V165c-.66-.05-1.34-.12-2-.12a18.76,18.76,0,0,0-2,.12c-.5-1.62-1-3.22-1.62-4.79-.87,0-1.72-.07-2.59-.07s-1.9,0-2.86,0l-.12.33c-.52,1.48-1.1,2.94-1.48,4.49a5.7,5.7,0,0,0-1.1-.12,5.89,5.89,0,0,0-1.11.12Z"/><path class="cls-1" d="M237.54,148.89c.64,0,1.27.12,1.91.12s1.29-.08,1.92-.12c-.05,1.41-.16,2.79-.18,4.21,0,.91,0,1.83,0,2.74v4.45c0,1,.05,2,.05,3l1.27,0c1.38,0,2.74-.14,4.11-.26a5.15,5.15,0,0,0,0,2l-4-.14c-1.08,0-2.14.07-3.2.07-.66,0-1.29,0-1.95.07.17-2.54.21-5.08.21-7.61,0-.94,0-1.88,0-2.82,0-1.74-.1-3.46-.14-5.19Z"/><path class="cls-1" d="M256.78,148.89c1.25,0,2.49.14,3.74.14,1.76,0,3.55-.1,5.31-.12a5.35,5.35,0,0,0-.05,1.74,2.74,2.74,0,0,1,.05.28,53.3,53.3,0,0,0-5.36-.28c0,.82,0,1.62,0,2.45s0,1.73,0,2.6l5.34-.19a8.37,8.37,0,0,0-.12,1.11,5.29,5.29,0,0,0,.12.89c-1.39-.09-2.77-.16-4.18-.19l-1.16,0c0,1,0,2,0,3s0,2,0,3a52,52,0,0,0,5.43-.3,5.33,5.33,0,0,0-.05,1.74,2.74,2.74,0,0,1,.05.28c-1.41,0-2.84-.14-4.25-.14-.92,0-1.86.07-2.77.07-.71,0-1.39,0-2.1.07.05-.45.05-.89.07-1.34.05-1.46.1-2.91.12-4.39,0-1.18,0-2.38,0-3.57v-2.75c0-1.23-.1-2.49-.15-3.72Z"/><path class="cls-1" d="M283.43,152.06a2.78,2.78,0,0,0-2.7-2,2.38,2.38,0,0,0-1.88.63,2.11,2.11,0,0,0-.71,1.62c0,2.49,5.55,3,6.75,5.78a5.13,5.13,0,0,1-.17,4.3,4.74,4.74,0,0,1-2.49,2.28,7,7,0,0,1-3.17.61,7.34,7.34,0,0,1-3.78-1,21.84,21.84,0,0,0,.68-3h.44a3.13,3.13,0,0,0,3.25,2.51c1.45,0,2.75-.77,2.75-2.37a2.29,2.29,0,0,0-.87-1.81,16.67,16.67,0,0,0-2.64-1.48A18,18,0,0,1,277,157a4.09,4.09,0,0,1-1.62-3.52,4.34,4.34,0,0,1,1.78-3.71,5.19,5.19,0,0,1,3.64-1.16,6.38,6.38,0,0,1,3.5.94c.07.07.14.1.21.17-.28.75-.51,1.53-.75,2.3Z"/><path class="cls-1" d="M196.8,94.1l-.51,2a10.25,10.25,0,0,1-4.66,1,13.27,13.27,0,0,1-3.07-.35A10.85,10.85,0,0,1,186,95.6a8.11,8.11,0,0,1-1.69-1.67,7.5,7.5,0,0,1-1.48-4.65,8.2,8.2,0,0,1,2.7-6.67,10.07,10.07,0,0,1,6.65-2.16,10.84,10.84,0,0,1,4.79,1.12c-.21.8-.35,1.6-.54,2.4h-.32a4.88,4.88,0,0,0-3.9-2.07c-3.9,0-5.5,3.64-5.5,7a7.84,7.84,0,0,0,1.38,4.77,5.35,5.35,0,0,0,4.23,2A6.73,6.73,0,0,0,196.5,94Z"/><path class="cls-1" d="M206,80.84a14.48,14.48,0,0,0,2.09-.14c.33.68.66,1.39,1,2.07L210.1,85c.33.68.69,1.36,1,2a2.46,2.46,0,0,0,.47.78c0,.07.36-.45.38-.47.14-.23.28-.49.4-.73.49-.92.94-1.86,1.38-2.77.31-.64.59-1.29.88-1.93.16-.4.32-.77.51-1.17l.28,0a5.44,5.44,0,0,0,1.93,0c-1.65,3.08-3.41,5.92-4.89,8.93,0,.89,0,1.81,0,2.7,0,1.48.15,3,.24,4.44-.66,0-1.34-.12-2-.12a18.49,18.49,0,0,0-2,.12c.16-1.79.26-3.57.26-5.36,0-.44,0-.87,0-1.31-1.76-3-3.31-6.21-5.08-9.4.71,0,1.41.11,2.12.11"/><path class="cls-1" d="M226.43,80.73c.3,0,.63.11.94.11a7.22,7.22,0,0,0,1-.11c1.72,3.76,3.57,7.42,5.43,11.11l1.38-2.7q2.16-4.15,4.09-8.41l.26,0a4.83,4.83,0,0,0,1.74,0c.4,3.66.85,7.33,1.29,11,.17,1.36.38,2.73.57,4.09a7.06,7.06,0,0,1,.16,1c-.63,0-1.29-.12-1.93-.12s-1.26.07-1.9.12c-.16-3.62-.63-7.21-1-10.83-1.79,3.59-3.55,7.19-5.22,10.83a2.22,2.22,0,0,0-.89,0L230.52,93c-1.08-2.28-2.24-4.54-3.34-6.81-.16,1.38-.35,2.77-.49,4.15-.07.9-.17,1.77-.24,2.66s-.12,1.53-.16,2.3c0,.49,0,1-.1,1.46a5,5,0,0,0-2.18,0,4.84,4.84,0,0,1,.16-.87c.26-1.18.43-2.37.64-3.57.26-1.53.44-3.06.66-4.59Z"/><path class="cls-1" d="M255,84.84c0,.61,0,1.22,0,1.83s0,1.13,0,1.69c2.45.24,3.67-.94,3.67-3.36a4.65,4.65,0,0,0-.12-1.17c-.42-2-1.9-1.69-3.5-1.79Zm.89,5.87c-.21-.4-.44-.82-.68-1.2-.07-.09,0-.11-.16-.14a.12.12,0,0,0-.12.14c0,1.39,0,2.8,0,4.19a4.43,4.43,0,0,1,0,.63c0,.82.12,1.65.16,2.47-.63,0-1.26-.12-1.9-.12s-1.27.07-1.9.12l0-.45c0-.52,0-1,.1-1.55.11-1.53.11-3.08.11-4.63s0-2.84,0-4.25c0-1.74-.07-3.45-.16-5.19l1.61,0c1.13,0,2.26-.07,3.39-.07a8.85,8.85,0,0,1,3.78.5,3.66,3.66,0,0,1,2.07,3.43,4.21,4.21,0,0,1-3.66,4.23c1.29,2.25,2.74,4.41,4.15,6.6l.85,1.34c-.71,0-1.43-.12-2.14-.12s-1.41,0-2.11.12L256.57,92Z"/><path class="cls-1" d="M285.65,84.16c0,.75-.07,1.53-.07,2.3s0,1.74-.07,2.58c0,2.68,0,5.13-2.46,6.82a7.56,7.56,0,0,1-4.45,1.24c-2.84,0-5.91-.89-6.78-3.94a8.24,8.24,0,0,1-.22-1.27,12.43,12.43,0,0,1,0-1.62c0-1-.05-1.93-.05-2.92s0-1.95,0-2.93,0-1.81,0-2.71c0-.33,0-.65,0-1,.66,0,1.29.11,1.95.11a12.15,12.15,0,0,0,1.9-.14c0,.38-.07.78-.12,1.16-.11,1.85-.19,3.66-.19,5.49a31,31,0,0,0,.17,4.44,4.28,4.28,0,0,0,1.24,2.7,3.75,3.75,0,0,0,2.68,1,3.92,3.92,0,0,0,4.18-2.85,18.16,18.16,0,0,0,.43-4.86c0-2.35,0-4.72-.19-7.07a7,7,0,0,0,1.2.11,6.36,6.36,0,0,0,1.17-.11c-.11,1.13-.14,2.28-.19,3.43"/><path class="cls-1" d="M236.46,55l.16,11.65.21,5.8.11,1.18c-.81,0-1.66-.26-2.47-.26-1,0-1.88.21-2.85.26.06-.37.06-.8.11-1.18l.22-4.24.21-12.57V42.57l-.27-5.69c.92,0,1.83.21,2.74.21s1.67-.1,2.47-.16c0,.48,0,1-.1,1.45l-.22,4.89-.27,9.34Z"/><path class="cls-1" d="M221.39,71.07c.64,2.18-11.07,3-15.39,3-14,0-25.13-7.19-25.13-19.33,0-11.39,11.09-19.34,25.13-19.34A41.64,41.64,0,0,1,220.66,38l-2.26,3.65A31.33,31.33,0,0,0,206,39.24c-11,0-18.83,6.88-18.83,15.47S195,70.18,206,70.18a30.86,30.86,0,0,0,9.52-1.56l.74-.63V56.93l-.27-5.7c.91.06,2.69.22,3.6.22s1.67-.11,2.47-.16c-.05.48-.05,1-.1,1.45l-.22,4.89Z"/><path class="cls-1" d="M284.54,71.07c.64,2.18-11.08,3-15.39,3-14,0-25.14-7.19-25.14-19.33,0-11.39,11.1-19.34,25.14-19.34A41.68,41.68,0,0,1,283.81,38l-2.26,3.65a31.33,31.33,0,0,0-12.4-2.42c-11,0-18.84,6.88-18.84,15.47s7.81,15.47,18.84,15.47a30.86,30.86,0,0,0,9.52-1.56l.73-.63V56.93l-.26-5.7c.91.06,2.69.22,3.6.22s1.67-.11,2.47-.16c0,.48,0,1-.11,1.45l-.21,4.89Z"/><path class="cls-1" d="M329.94,60.7V41.52h2.75V60.7Z"/><path class="cls-1" d="M347.32,60.13a10.56,10.56,0,0,1-4.4.9c-4.76,0-7.28-2.75-7.28-7.58,0-4.23,2.66-7.09,6.56-7.09,4.07,0,6.19,2.58,6.19,7.91h-10A4.59,4.59,0,0,0,343,58.94a8.27,8.27,0,0,0,4.32-1.4Zm-1.68-7.78c0-2.25-1.32-3.9-3.52-3.9s-3.46,1.48-3.74,3.9Z"/><path class="cls-1" d="M360.35,60.46a7.68,7.68,0,0,1-3.24.57A7.09,7.09,0,0,1,350,53.7c0-4.29,2.86-7.34,7.15-7.34a9.83,9.83,0,0,1,3.13.55L360,49.05a7.4,7.4,0,0,0-2.8-.6c-2.83,0-4.51,2.52-4.51,5.25,0,2.52,1.38,5.24,4.67,5.24a5.43,5.43,0,0,0,2.78-.79Z"/><path class="cls-1" d="M372.05,60.7V53.34c0-2.94-.66-4.89-3.05-4.89-3.55,0-4.18,3.6-4.18,5.69V60.7h-2.58V40.09h2.58v8.6h.06a5.1,5.1,0,0,1,4.5-2.33c3.55,0,5.25,2.17,5.25,6V60.7Z"/><path class="cls-1" d="M376.67,64.5a4.08,4.08,0,0,0,1.21.22c1.67,0,2.72-1.74,3.08-3.44a5.65,5.65,0,0,0-.39-1.21l-4.86-13.38h2.83l3.76,11.59h.06l3.85-11.59h2.61l-5.56,15.39c-.85,2.33-2,4.72-5,4.72a9,9,0,0,1-1.76-.19Z"/><path class="cls-1" d="M400.14,60.7v-2h-.06A5.64,5.64,0,0,1,395.3,61c-4.15,0-6-3.62-6-7.58,0-3.77,2-7.09,6.05-7.09A5,5,0,0,1,400,48.61H400V40.09h2.58V60.7Zm-.11-7c0-2.47-1.24-5.27-4.18-5.27-2.58,0-3.82,2.3-3.82,5,0,3.08,1.48,5.44,3.87,5.44C398.76,58.94,400,56.14,400,53.72Z"/><path class="cls-1" d="M421.87,60.7V58.89h-.06A5.19,5.19,0,0,1,417.45,61c-3.25,0-5.12-1.54-5.12-4.37s2.83-4.61,6.71-4.61c1.1,0,2,0,2.55.05,0-2.55-1-3.65-3.46-3.65a6.54,6.54,0,0,0-4.07,1.43l-.13-2.2a8.91,8.91,0,0,1,4.61-1.32c3.88,0,5.64,1.84,5.64,5.77v6.15a21.92,21.92,0,0,0,.11,2.42ZM421.59,54s-1.15-.06-1.67-.06c-2.92,0-4.84.88-4.84,2.69a2.46,2.46,0,0,0,2.64,2.28,3.54,3.54,0,0,0,3.87-3.68Z"/><path class="cls-1" d="M447.29,52.46h-4V50.21H450v10a17.91,17.91,0,0,1-5.83.85c-6.24,0-10.14-4-10.14-10,0-5.83,4.18-9.84,10.17-9.84a14.71,14.71,0,0,1,5.6,1l-.22,2.78a8.88,8.88,0,0,0-5.25-1.32,7.14,7.14,0,0,0-7.39,7.5,7.15,7.15,0,0,0,7.26,7.5,11.21,11.21,0,0,0,3.05-.33Z"/><path class="cls-1" d="M452.84,53.7c0-4.29,2.86-7.34,7.15-7.34,4.09,0,7.12,2.91,7.12,7.34a7.14,7.14,0,1,1-14.27,0Zm11.52,0c0-2.78-1.68-5.25-4.4-5.25s-4.37,2.55-4.37,5.25,1.49,5.24,4.4,5.24S464.36,56.42,464.36,53.7Z"/><path class="cls-1" d="M471.09,60.7V48.78H467.8V46.69h3.29V45.31c0-3.68,1.19-5.55,4.7-5.55a10.19,10.19,0,0,1,1.73.17L477.41,42a4.15,4.15,0,0,0-1.23-.17c-1.87,0-2.5,1-2.5,3.11v1.73h3.71v2.09h-3.71V60.7Z"/><path class="cls-1" d="M487.42,60.7V58.89h-.06A5.22,5.22,0,0,1,483,61c-3.24,0-5.11-1.54-5.11-4.37s2.83-4.61,6.71-4.61c1.09,0,2,0,2.55.05,0-2.55-1-3.65-3.46-3.65a6.54,6.54,0,0,0-4.07,1.43l-.14-2.2a8.92,8.92,0,0,1,4.62-1.32c3.87,0,5.63,1.84,5.63,5.77v6.15a21.92,21.92,0,0,0,.11,2.42ZM487.14,54S486,54,485.46,54c-2.91,0-4.83.88-4.83,2.69a2.45,2.45,0,0,0,2.64,2.28,3.54,3.54,0,0,0,3.87-3.68Z"/><path class="cls-1" d="M493.23,60.7V40.09h2.58V60.7Z"/><path class="cls-1" d="M329.78,90.76V71.57h5.66c5.79,0,10.22,3.6,10.22,9.46,0,6.26-3.77,9.73-10.2,9.73Zm5.68-2.42c4.18,0,7.29-1.84,7.29-7.23a6.7,6.7,0,0,0-7-7.12h-3.19V88.34Z"/><path class="cls-1" d="M348.59,73.61V70.69h2.91v2.92Zm.16,17.15v-14h2.59v14Z"/><path class="cls-1" d="M364.8,88.58h-.06a5.86,5.86,0,0,1-4.7,2.18c-4,0-6-3.27-6-6.9,0-3.82,2.2-7.45,6.27-7.45,2.19,0,3.76.71,4.61,2.42H365V76.74h2.39V90.18c0,4.29-2.28,6.68-7.23,6.68a14.42,14.42,0,0,1-5-1l.28-2.39a10.49,10.49,0,0,0,5,1.27c2.74,0,4.37-1.84,4.37-4.81Zm0-4.69c0-2.92-1.38-5.39-4.1-5.39-2.53,0-3.9,2.66-3.9,5.22,0,2.75,1.57,5,3.9,5S364.8,86.69,364.8,83.89Z"/><path class="cls-1" d="M370.8,73.61V70.69h2.91v2.92ZM371,90.76v-14h2.59v14Z"/><path class="cls-1" d="M387.16,90.76v-2h-.05a5.64,5.64,0,0,1-4.78,2.31c-4.15,0-6-3.63-6-7.59,0-3.76,2-7.09,6-7.09A5.06,5.06,0,0,1,387,78.66h.05V70.14h2.59V90.76Zm-.11-7c0-2.48-1.23-5.28-4.17-5.28-2.59,0-3.82,2.31-3.82,5.06,0,3.07,1.48,5.44,3.87,5.44C385.79,89,387.05,86.19,387.05,83.78Z"/><path class="cls-1" d="M392.23,83.75c0-4.29,2.86-7.34,7.14-7.34,4.1,0,7.12,2.91,7.12,7.34a7.13,7.13,0,1,1-14.26,0Zm11.51,0c0-2.78-1.67-5.25-4.39-5.25S395,81.06,395,83.75,396.46,89,399.37,89,403.74,86.47,403.74,83.75Z"/><path class="cls-1" d="M409.24,90.76V70.14h2.59V90.76Z"/><path class="cls-1" d="M436.56,90.4a11.6,11.6,0,0,1-4.37.69c-6.13,0-10.12-4-10.12-10,0-5.82,4.24-9.84,10.14-9.84a10.4,10.4,0,0,1,4.32.83l-.22,2.66a7.77,7.77,0,0,0-4-1.07,7.51,7.51,0,0,0-.14,15,9.35,9.35,0,0,0,4.18-.94Z"/><path class="cls-1" d="M437,94.55a3.77,3.77,0,0,0,1.2.22c1.68,0,2.73-1.73,3.08-3.44a5.77,5.77,0,0,0-.38-1.21L436,76.74h2.83l3.77,11.6h.05l3.85-11.6h2.61l-5.55,15.39c-.85,2.34-2,4.73-5,4.73a8.13,8.13,0,0,1-1.76-.2Z"/><path class="cls-1" d="M468.39,90.76V82.35c0-2.37-.8-3.85-2.5-3.85-2.48,0-3.68,2.31-3.68,5.22v7h-2.59V82.35c0-2.28-.74-3.85-2.5-3.85-2.44,0-3.68,2.28-3.68,5.19v7.07h-2.58v-14h2.41v2h.06a4.71,4.71,0,0,1,4.45-2.36,4.16,4.16,0,0,1,4,2.72,5,5,0,0,1,4.36-2.72c3.17,0,4.84,1.9,4.84,5.36v9Z"/><path class="cls-1" d="M474.36,90.76v-14h2.42v2.17h.05a4.25,4.25,0,0,1,3.68-2.5,7.94,7.94,0,0,1,1.68.19v2.31a3.89,3.89,0,0,0-1.43-.25c-2.36,0-3.82,2.29-3.82,5.72v6.38Z"/><path class="cls-1" d="M493.92,90.76V88.53h-.06a5,5,0,0,1-4.59,2.56c-3.52,0-5.25-2.15-5.25-6V76.74h2.59V84.3c0,4.31,1.89,4.7,3.07,4.7,2.59,0,4.15-2.09,4.15-5.75V76.74h2.59v14Z"/><path class="cls-1" d="M330,131.13V112h5.66c5.8,0,10.22,3.6,10.22,9.46,0,6.26-3.76,9.72-10.19,9.72Zm5.69-2.41c4.17,0,7.28-1.85,7.28-7.23a6.7,6.7,0,0,0-7-7.12h-3.19v14.35Z"/><path class="cls-1" d="M348.79,114v-2.92h2.92V114Zm.17,17.14v-14h2.58v14Z"/><path class="cls-1" d="M365,129h-.06a5.82,5.82,0,0,1-4.69,2.17c-4,0-6-3.26-6-6.89,0-3.82,2.2-7.45,6.27-7.45,2.2,0,3.77.71,4.62,2.42h.05v-2.09h2.39v13.44c0,4.28-2.28,6.68-7.22,6.68a14.33,14.33,0,0,1-5-1l.27-2.39a10.54,10.54,0,0,0,5,1.27c2.75,0,4.37-1.84,4.37-4.81Zm0-4.7c0-2.91-1.37-5.38-4.1-5.38-2.52,0-3.9,2.66-3.9,5.22,0,2.75,1.57,5,3.9,5S365,127.07,365,124.26Z"/><path class="cls-1" d="M371,114v-2.92h2.91V114Zm.17,17.14v-14h2.58v14Z"/><path class="cls-1" d="M385.17,131.08a8,8,0,0,1-2.22.38c-2.89,0-4.29-1.51-4.29-4v-8.21H375.5v-2.09h3.16v-3.24l2.59-.83v4.07H385v2.09h-3.71v7.72a2.23,2.23,0,0,0,2.17,2.45,3.14,3.14,0,0,0,1.75-.5Z"/><path class="cls-1" d="M396.1,131.13v-1.81H396a5.19,5.19,0,0,1-4.37,2.14c-3.24,0-5.11-1.53-5.11-4.36s2.83-4.62,6.71-4.62c1.1,0,2,0,2.55,0,0-2.55-1-3.65-3.46-3.65a6.54,6.54,0,0,0-4.07,1.43l-.13-2.2a8.91,8.91,0,0,1,4.61-1.32c3.88,0,5.64,1.84,5.64,5.77v6.16a19.54,19.54,0,0,0,.11,2.41Zm-.28-6.67s-1.15-.06-1.67-.06c-2.92,0-4.84.88-4.84,2.7a2.46,2.46,0,0,0,2.64,2.28,3.54,3.54,0,0,0,3.87-3.69Z"/><path class="cls-1" d="M401.91,131.13V110.52h2.59v20.61Z"/><path class="cls-1" d="M427.8,131.13V122.4h-9.18v8.73h-2.75V112h2.75v8h9.18v-8h2.75v19.18Z"/><path class="cls-1" d="M445.25,130.56a10.49,10.49,0,0,1-4.39.9c-4.76,0-7.29-2.74-7.29-7.58,0-4.23,2.67-7.09,6.57-7.09,4.07,0,6.19,2.58,6.19,7.91h-10a4.59,4.59,0,0,0,4.62,4.68,8.24,8.24,0,0,0,4.31-1.41Zm-1.67-7.78c0-2.25-1.32-3.9-3.52-3.9s-3.46,1.48-3.74,3.9Z"/><path class="cls-1" d="M457.29,131.13v-1.81h-.05a5.19,5.19,0,0,1-4.37,2.14c-3.24,0-5.11-1.53-5.11-4.36s2.83-4.62,6.7-4.62c1.1,0,2,0,2.56,0,0-2.55-1-3.65-3.46-3.65a6.54,6.54,0,0,0-4.07,1.43l-.14-2.2a8.92,8.92,0,0,1,4.62-1.32c3.87,0,5.63,1.84,5.63,5.77v6.16a21.73,21.73,0,0,0,.11,2.41Zm-.27-6.67s-1.15-.06-1.68-.06c-2.91,0-4.83.88-4.83,2.7a2.45,2.45,0,0,0,2.63,2.28,3.55,3.55,0,0,0,3.88-3.69Z"/><path class="cls-1" d="M463.11,131.13V110.52h2.58v20.61Z"/><path class="cls-1" d="M477.12,131.08a8.12,8.12,0,0,1-2.23.38c-2.88,0-4.28-1.51-4.28-4v-8.21h-3.16v-2.09h3.16v-3.24l2.58-.83v4.07h3.71v2.09h-3.71v7.72a2.23,2.23,0,0,0,2.17,2.45,3.21,3.21,0,0,0,1.76-.5Z"/><path class="cls-1" d="M488.84,131.13v-7.36c0-2.94-.66-4.89-3-4.89-3.54,0-4.17,3.6-4.17,5.69v6.56H479V110.52h2.59v8.61h.05a5.1,5.1,0,0,1,4.51-2.34c3.54,0,5.25,2.17,5.25,6v8.32Z"/><path class="cls-1" d="M338.5,161.19v-1.82h-.06a5.19,5.19,0,0,1-4.37,2.15c-3.24,0-5.11-1.54-5.11-4.37s2.83-4.62,6.71-4.62c1.1,0,2,0,2.55.06,0-2.56-1-3.66-3.46-3.66a6.6,6.6,0,0,0-4.07,1.43l-.13-2.2a8.91,8.91,0,0,1,4.61-1.32c3.88,0,5.64,1.84,5.64,5.77v6.16a19.81,19.81,0,0,0,.11,2.42Zm-.28-6.68s-1.15-.06-1.67-.06c-2.92,0-4.84.88-4.84,2.7a2.46,2.46,0,0,0,2.64,2.28,3.54,3.54,0,0,0,3.87-3.68Z"/><path class="cls-1" d="M354,161.19V153.6c0-3.68-1.34-4.67-3.07-4.67-2.7,0-4.15,2.23-4.15,5.74v6.52h-2.59v-14h2.5v2.23h.06a5,5,0,0,1,4.59-2.56c3.52,0,5.25,2.15,5.25,6v8.38Z"/><path class="cls-1" d="M370,161.19v-2h-.05a5.64,5.64,0,0,1-4.78,2.31c-4.15,0-6-3.63-6-7.59,0-3.76,2-7.09,6-7.09a5.06,5.06,0,0,1,4.65,2.26h.05v-8.52h2.59v20.61Zm-.11-7c0-2.48-1.23-5.28-4.17-5.28-2.59,0-3.82,2.31-3.82,5.06,0,3.08,1.48,5.44,3.87,5.44C368.61,159.43,369.87,156.63,369.87,154.21Z"/><path class="cls-1" d="M396.86,160.83a11.6,11.6,0,0,1-4.37.69c-6.13,0-10.12-4-10.12-10,0-5.82,4.24-9.83,10.14-9.83a10.55,10.55,0,0,1,4.32.82l-.22,2.67a7.68,7.68,0,0,0-4-1.08,7.51,7.51,0,0,0-.14,15,9.35,9.35,0,0,0,4.18-.94Z"/><path class="cls-1" d="M407.88,161.19v-1.82h-.06a5.2,5.2,0,0,1-4.37,2.15c-3.24,0-5.11-1.54-5.11-4.37s2.83-4.62,6.71-4.62c1.1,0,2,0,2.55.06,0-2.56-1-3.66-3.46-3.66a6.6,6.6,0,0,0-4.07,1.43l-.13-2.2a8.91,8.91,0,0,1,4.61-1.32c3.88,0,5.64,1.84,5.64,5.77v6.16a19.81,19.81,0,0,0,.11,2.42Zm-.28-6.68s-1.15-.06-1.67-.06c-2.92,0-4.84.88-4.84,2.7a2.46,2.46,0,0,0,2.64,2.28,3.54,3.54,0,0,0,3.87-3.68Z"/><path class="cls-1" d="M413.52,161.19v-14h2.42v2.17H416a4.22,4.22,0,0,1,3.68-2.5,7.29,7.29,0,0,1,1.67.2v2.3a3.79,3.79,0,0,0-1.42-.24c-2.37,0-3.82,2.28-3.82,5.71v6.38Z"/><path class="cls-1" d="M433.84,160.61a10.44,10.44,0,0,1-4.4.91c-4.76,0-7.28-2.75-7.28-7.59,0-4.23,2.66-7.09,6.56-7.09,4.07,0,6.19,2.59,6.19,7.92h-10a4.59,4.59,0,0,0,4.62,4.67,8.39,8.39,0,0,0,4.32-1.4Zm-1.68-7.78c0-2.25-1.32-3.9-3.52-3.9s-3.46,1.48-3.74,3.9Z"/><path class="cls-1" d="M460.41,161.19l-4.18-16.77h-.06L452,161.19h-3.68L442.49,142h3l4.59,16.43h.06L454.25,142h3.9l4.15,16.43h.06L467,142h2.91L464,161.19Z"/><path class="cls-1" d="M478.94,161.19v-1.82h-.05a5.2,5.2,0,0,1-4.37,2.15c-3.24,0-5.11-1.54-5.11-4.37s2.83-4.62,6.7-4.62c1.1,0,2,0,2.56.06,0-2.56-1-3.66-3.46-3.66a6.58,6.58,0,0,0-4.07,1.43l-.14-2.2a8.92,8.92,0,0,1,4.62-1.32c3.87,0,5.63,1.84,5.63,5.77v6.16a22,22,0,0,0,.11,2.42Zm-.27-6.68s-1.16-.06-1.68-.06c-2.91,0-4.83.88-4.83,2.7a2.45,2.45,0,0,0,2.63,2.28,3.55,3.55,0,0,0,3.88-3.68Z"/><path class="cls-1" d="M484.76,161.19V140.58h2.58v20.61Z"/><path class="cls-1" d="M501.82,160.61a10.39,10.39,0,0,1-4.4.91c-4.75,0-7.28-2.75-7.28-7.59,0-4.23,2.66-7.09,6.57-7.09,4.06,0,6.18,2.59,6.18,7.92h-10a4.59,4.59,0,0,0,4.61,4.67,8.36,8.36,0,0,0,4.32-1.4Zm-1.68-7.78c0-2.25-1.32-3.9-3.51-3.9s-3.47,1.48-3.74,3.9Z"/><path class="cls-1" d="M504.64,158.44a6.85,6.85,0,0,0,3.21,1c1.37,0,2.64-.61,2.64-2,0-.77-.5-1.45-2.53-2.36-2.88-1.29-3.54-2.5-3.54-3.93,0-2.91,2.22-4.29,4.94-4.29a10.9,10.9,0,0,1,3.22.55l-.22,2.26a7.5,7.5,0,0,0-2.72-.72c-1.4,0-2.48.61-2.48,1.7s1,1.74,2.72,2.51c2.4,1,3.36,2.14,3.36,4,0,2.66-2,4.37-4.92,4.37a7.87,7.87,0,0,1-3.82-.77Z"/></svg>